# xmcd
#
# Track frame offsets: 
#        183
#        12775
#        26118
#        37728
#        48633
#        61275
#        72993
#        83378
#        94785
#        106935
#        118073
#        131795
#        142258
#        153125
#        167443
#        181293
#        192545
#        207243
#        221750
#        234800
#        247990
#        259453
#        271813
#        281890
#        293948
#        306650
#        321498
#        334503
#
# Disc length: 4645 seconds
#
# Revision: 2
# Processed by: cddbd v1.5.2PL0 Copyright (c) Steve Scherf et al.
# Submitted via: ExactAudioCopy v0.95b4
#
DISCID=a412231c
DTITLE=Lefty Frizzell - Life's Like Poetry - Disc 01 of 12
DYEAR=1992
DGENRE=Country
TTITLE0=I Love You A Thousand Ways (1950)
TTITLE1=If You've Got The Money, I've Got The Time (1950)
TTITLE2=Shine, Shave, Shower (It's Saturday) (1951)
TTITLE3=Cold Feet (recorded 1950 - released 1984)
TTITLE4=Don't Think It Ain't Been Fun Dear (recorded 1950 - released 1
TTITLE4=984)
TTITLE5=When Payday Comes Around (recorded 1950 - released 1984)
TTITLE6=My Baby's Just Like Money (recorded 1951 - released 1984)
TTITLE7=Look What Thoughts Will Do (1951)
TTITLE8=My Baby's Just Like Money (1951)
TTITLE9=You Want Everything But Me (1951)
TTITLE10=I Want To Be With You Always (1951)
TTITLE11=Give Me More, More, More (Of Your Kisses) (1951)
TTITLE12=How Long Will It Take (To Stop Loving You) (1951)
TTITLE13=Always Late (With Your Kisses) (1951)
TTITLE14=Mom And Dad's Waltz (1951)
TTITLE15=You Can Go On Your Way Now (recorded 1951 - released 1984)
TTITLE16=Treasure Untold (1951)
TTITLE17=Blue Yodel #6 (1951)
TTITLE18=Travellin' Blues (1951)
TTITLE19=My Old Pal (1951)
TTITLE20=Blue Yodel, #2 (1951)
TTITLE21=Lullaby Yodel (1951)
TTITLE22=Brakeman's Blues (1951)
TTITLE23=My Rough And Rowdy Ways (1951)
TTITLE24=I Love You (Though You're No Good) (recorded 1951 - released 
TTITLE24=1984)
TTITLE25=It's Just You (I Could Love Always) (recorded 1951 - released
TTITLE25=1984)
TTITLE26=(Darling Now) You're Here So Everything's Alright (recorded 1
TTITLE26=951 - released 1984)
TTITLE27=I've Got Reasons To Hate You (recorded 1951 - released 1984)
EXTD=Life's Like Poetry - Disc 01 of 12\n© 1992 Bear Family Records
EXTT0=
EXTT1=
EXTT2=
EXTT3=
EXTT4=
EXTT5=
EXTT6=
EXTT7=
EXTT8=
EXTT9=
EXTT10=
EXTT11=
EXTT12=
EXTT13=
EXTT14=
EXTT15=
EXTT16=
EXTT17=
EXTT18=
EXTT19=
EXTT20=
EXTT21=
EXTT22=
EXTT23=
EXTT24=
EXTT25=
EXTT26=
EXTT27=
PLAYORDER=
